<?xml version="1.0" standalone="no"?>
<!DOCTYPE svg PUBLIC "-//W3C//DTD SVG 20010904//EN"
 "http://www.w3.org/TR/2001/REC-SVG-20010904/DTD/svg10.dtd">
<svg version="1.0" xmlns="http://www.w3.org/2000/svg"
 width="256.000000pt" height="246.000000pt" viewBox="0 0 256.000000 246.000000"
 preserveAspectRatio="xMidYMid meet">
<metadata>
Created by potrace 1.16, written by Peter Selinger 2001-2019
</metadata>
<g transform="translate(0.000000,246.000000) scale(0.100000,-0.100000)"
fill="#000000" stroke="none">
<path d="M1137 2000 c-249 -78 -369 -349 -255 -575 76 -150 221 -232 392 -223
167 9 305 112 357 266 31 94 25 234 -15 316 -35 72 -116 154 -182 186 -111 52
-198 61 -297 30z m219 -83 c2 -7 -25 -149 -61 -317 -36 -167 -65 -305 -65
-307 0 -2 -21 -3 -46 -3 -38 0 -45 3 -40 18 3 9 32 148 66 307 34 160 63 296
65 303 6 16 74 16 81 -1z m-246 -122 c0 -5 -23 -48 -50 -95 -28 -47 -50 -92
-50 -100 0 -8 23 -52 50 -98 28 -46 50 -87 50 -93 0 -5 -20 -9 -44 -9 l-44 0
-56 94 c-31 52 -56 102 -56 112 0 17 37 88 85 164 20 32 26 35 69 35 25 0 46
-4 46 -10z m420 -80 c27 -47 50 -97 50 -112 0 -14 -23 -66 -51 -114 l-51 -89
-49 0 c-27 0 -49 2 -49 4 0 3 22 42 50 88 27 46 50 94 50 106 0 13 -22 62 -50
109 -27 47 -50 87 -50 89 0 2 22 4 50 4 l49 0 51 -85z"/>
<path d="M599 947 c14 -14 15 -94 1 -102 -5 -3 -10 -10 -10 -16 0 -12 57 -12
65 1 3 6 1 10 -4 10 -18 0 -13 90 5 97 21 8 35 -14 33 -52 -2 -59 0 -65 26
-65 14 0 25 5 25 10 0 6 -4 10 -10 10 -5 0 -10 20 -10 45 0 33 5 47 16 52 23
8 34 -14 34 -69 0 -41 3 -48 19 -48 11 0 23 5 26 10 3 6 1 10 -4 10 -6 0 -11
21 -11 48 0 26 -4 52 -8 58 -4 7 -43 12 -106 12 -72 0 -95 -3 -87 -11z"/>
<path d="M838 953 c8 -3 12 -30 12 -88 0 -57 -4 -85 -12 -88 -7 -3 7 -6 32 -6
35 0 41 2 28 10 -10 5 -18 21 -18 34 0 22 3 23 24 15 39 -14 66 12 66 64 0 24
-6 48 -12 54 -7 5 -40 10 -73 10 -33 0 -54 -3 -47 -5z"/>
<path d="M1878 899 c3 -40 0 -59 -8 -59 -6 0 -8 -4 -5 -10 3 -5 19 -10 34 -10
27 0 27 0 23 60 -4 55 -3 60 16 60 18 0 21 -7 24 -57 3 -50 6 -58 24 -61 19
-3 20 1 16 58 -4 55 -3 60 16 60 18 0 21 -7 24 -57 3 -50 6 -58 24 -61 19 -3
20 1 16 55 -2 32 -9 63 -14 69 -5 8 -43 12 -101 12 l-92 -1 3 -58z"/>
</g>
</svg>
